<svg width="25" height="25" viewBox="0 0 25 25" fill="none" xmlns="http://www.w3.org/2000/svg">
<g clip-path="url(#clip0_876_3853)">
<path d="M17.2729 0.345262C17.2219 0.288262 15.3844 0.367763 13.7854 2.10326C12.1864 3.83726 12.4324 5.82626 12.4684 5.87726C12.5044 5.92826 14.7484 6.00776 16.1809 3.99026C17.6134 1.97276 17.3239 0.403762 17.2729 0.345262ZM22.2439 17.9448C22.1719 17.8008 18.7564 16.0938 19.0744 12.8118C19.3924 9.52826 21.5869 8.62826 21.6214 8.53076C21.6559 8.43326 20.7259 7.34576 19.7404 6.79526C19.0168 6.40714 18.216 6.18477 17.3959 6.14426C17.2339 6.13976 16.6714 6.00176 15.5149 6.31826C14.7529 6.52676 13.0354 7.20176 12.5629 7.22876C12.0889 7.25576 10.6789 6.44576 9.16239 6.23126C8.19189 6.04376 7.16289 6.42776 6.42639 6.72326C5.69139 7.01726 4.29339 7.85426 3.31539 10.0788C2.33739 12.3018 2.84889 15.8238 3.21489 16.9188C3.58089 18.0123 4.15239 19.8048 5.12439 21.1128C5.98839 22.5888 7.13439 23.6133 7.61289 23.9613C8.09139 24.3093 9.44139 24.5403 10.3774 24.0618C11.1304 23.5998 12.4894 23.3343 13.0264 23.3538C13.5619 23.3733 14.6179 23.5848 15.6994 24.1623C16.5559 24.4578 17.3659 24.3348 18.1774 24.0048C18.9889 23.6733 20.1634 22.4163 21.5344 19.8678C22.0549 18.6828 22.2919 18.0423 22.2439 17.9448Z" fill="black"/>
<path d="M17.2729 0.345262C17.2219 0.288262 15.3844 0.367763 13.7854 2.10326C12.1864 3.83726 12.4324 5.82626 12.4684 5.87726C12.5044 5.92826 14.7484 6.00776 16.1809 3.99026C17.6134 1.97276 17.3239 0.403762 17.2729 0.345262ZM22.2439 17.9448C22.1719 17.8008 18.7564 16.0938 19.0744 12.8118C19.3924 9.52826 21.5869 8.62826 21.6214 8.53076C21.6559 8.43326 20.7259 7.34576 19.7404 6.79526C19.0168 6.40714 18.216 6.18477 17.3959 6.14426C17.2339 6.13976 16.6714 6.00176 15.5149 6.31826C14.7529 6.52676 13.0354 7.20176 12.5629 7.22876C12.0889 7.25576 10.6789 6.44576 9.16239 6.23126C8.19189 6.04376 7.16289 6.42776 6.42639 6.72326C5.69139 7.01726 4.29339 7.85426 3.31539 10.0788C2.33739 12.3018 2.84889 15.8238 3.21489 16.9188C3.58089 18.0123 4.15239 19.8048 5.12439 21.1128C5.98839 22.5888 7.13439 23.6133 7.61289 23.9613C8.09139 24.3093 9.44139 24.5403 10.3774 24.0618C11.1304 23.5998 12.4894 23.3343 13.0264 23.3538C13.5619 23.3733 14.6179 23.5848 15.6994 24.1623C16.5559 24.4578 17.3659 24.3348 18.1774 24.0048C18.9889 23.6733 20.1634 22.4163 21.5344 19.8678C22.0549 18.6828 22.2919 18.0423 22.2439 17.9448Z" fill="black"/>
</g>
<defs>
<clipPath id="clip0_876_3853">
<rect width="24" height="24" fill="white" transform="translate(0.5 0.333252)"/>
</clipPath>
</defs>
</svg>
