<svg width="29" height="28" viewBox="0 0 29 28" fill="none" xmlns="http://www.w3.org/2000/svg">
<path fill-rule="evenodd" clip-rule="evenodd" d="M2.83301 14.0176C2.83301 7.87168 7.74467 2.33337 14.523 2.33337C21.1497 2.33337 26.1663 7.76652 26.1663 13.9825C26.1663 21.1917 20.2863 25.6667 14.4997 25.6667C12.5863 25.6667 10.463 25.1526 8.75967 24.1478C8.16467 23.7856 7.66301 23.5168 7.02134 23.7271L4.66467 24.4282C4.06967 24.6151 3.53301 24.1478 3.70801 23.5168L4.48967 20.8996C4.61801 20.5373 4.59467 20.1518 4.40801 19.848C3.40467 18.0019 2.83301 15.9805 2.83301 14.0176ZM12.983 14.0176C12.983 14.8471 13.648 15.5131 14.4763 15.5248C15.3047 15.5248 15.9697 14.8471 15.9697 14.0293C15.9697 13.1997 15.3047 12.5337 14.4763 12.5337C13.6597 12.522 12.983 13.1997 12.983 14.0176ZM18.3613 14.0293C18.3613 14.8471 19.0263 15.5248 19.8547 15.5248C20.683 15.5248 21.348 14.8471 21.348 14.0293C21.348 13.1997 20.683 12.5337 19.8547 12.5337C19.0263 12.5337 18.3613 13.1997 18.3613 14.0293ZM9.09801 15.5248C8.28134 15.5248 7.60467 14.8471 7.60467 14.0293C7.60467 13.1997 8.26967 12.5337 9.09801 12.5337C9.92634 12.5337 10.5913 13.1997 10.5913 14.0293C10.5913 14.8471 9.92634 15.5131 9.09801 15.5248Z" fill="url(#paint0_linear_225_5695)"/>
<defs>
<linearGradient id="paint0_linear_225_5695" x1="26.1663" y1="25.6667" x2="-1.59823" y2="17.6166" gradientUnits="userSpaceOnUse">
<stop stop-color="#246BFD"/>
<stop offset="1" stop-color="#5089FF"/>
</linearGradient>
</defs>
</svg>
