<svg width="29" height="28" viewBox="0 0 29 28" fill="none" xmlns="http://www.w3.org/2000/svg">
<path fill-rule="evenodd" clip-rule="evenodd" d="M20.5431 5.14504C20.5431 3.59337 21.8031 2.33337 23.3548 2.33337C24.9065 2.33337 26.1665 3.59337 26.1665 5.14504C26.1665 6.69671 24.9065 7.95671 23.3548 7.95671C21.8031 7.95671 20.5431 6.69671 20.5431 5.14504ZM16.0513 17.2192L19.423 12.8687L19.3763 12.8921C19.563 12.6354 19.598 12.3087 19.4697 12.0171C19.3425 11.7254 19.0613 11.5271 18.7592 11.5037C18.443 11.4687 18.1292 11.6087 17.9413 11.8654L15.1192 15.5171L11.8863 12.9737C11.688 12.8221 11.4547 12.7626 11.2213 12.7871C10.9892 12.8221 10.7792 12.9492 10.638 13.1359L7.18584 17.6287L7.11467 17.7337C6.91634 18.1059 7.00967 18.5842 7.35967 18.8421C7.52301 18.9471 7.69801 19.0171 7.89634 19.0171C8.16584 19.0287 8.42134 18.8876 8.58467 18.6671L11.513 14.8976L14.838 17.3954L14.943 17.4642C15.3163 17.6626 15.783 17.5704 16.0513 17.2192ZM18.5247 4.41039C18.478 4.70206 18.4547 4.99372 18.4547 5.28539C18.4547 7.91039 20.578 10.0326 23.1913 10.0326C23.483 10.0326 23.763 9.99872 24.0547 9.95206V19.3659C24.0547 23.3221 21.7213 25.6671 17.7547 25.6671H9.13417C5.16634 25.6671 2.83301 23.3221 2.83301 19.3659V10.7337C2.83301 6.76706 5.16634 4.41039 9.13417 4.41039H18.5247Z" fill="url(#paint0_linear_217_3873)"/>
<defs>
<linearGradient id="paint0_linear_217_3873" x1="26.1665" y1="25.6671" x2="-1.5983" y2="17.617" gradientUnits="userSpaceOnUse">
<stop stop-color="#246BFD"/>
<stop offset="1" stop-color="#5089FF"/>
</linearGradient>
</defs>
</svg>
