<svg width="29" height="28" viewBox="0 0 29 28" fill="none" xmlns="http://www.w3.org/2000/svg">
<path fill-rule="evenodd" clip-rule="evenodd" d="M19.3517 9.60495C19.3517 12.3463 17.1663 14.5443 14.4409 14.5443C11.7154 14.5443 9.53002 12.3463 9.53002 9.60495C9.53002 6.86261 11.7154 4.66663 14.4409 4.66663C17.1663 4.66663 19.3517 6.86261 19.3517 9.60495ZM14.4409 23.3333C10.4378 23.3333 7.01976 22.6987 7.01976 20.1602C7.01976 17.6206 10.4159 16.9629 14.4409 16.9629C18.4439 16.9629 21.862 17.5975 21.862 20.137C21.862 22.6756 18.4658 23.3333 14.4409 23.3333ZM21.4503 9.69405C21.4503 11.0915 21.0335 12.3933 20.3022 13.4756C20.227 13.5869 20.2939 13.7372 20.4265 13.7603C20.6093 13.7918 20.7984 13.8097 20.9906 13.8149C22.9075 13.8654 24.6281 12.6245 25.1034 10.7563C25.8074 7.9814 23.7401 5.49017 21.1076 5.49017C20.8214 5.49017 20.5477 5.52064 20.2813 5.57528C20.2448 5.58368 20.2061 5.6005 20.1852 5.63307C20.1601 5.67299 20.1789 5.72658 20.204 5.76125C20.9948 6.87605 21.4503 8.23567 21.4503 9.69405ZM24.6249 15.7646C25.913 16.0178 26.7602 16.5348 27.1112 17.286C27.4078 17.9028 27.4078 18.6183 27.1112 19.2341C26.5742 20.3993 24.8432 20.7733 24.1705 20.87C24.0316 20.891 23.9198 20.7702 23.9344 20.6305C24.2781 17.4016 21.5443 15.8707 20.8371 15.5188C20.8068 15.503 20.8005 15.4788 20.8036 15.4641C20.8057 15.4536 20.8183 15.4368 20.8412 15.4337C22.3716 15.4053 24.0169 15.6154 24.6249 15.7646ZM8.01029 13.8148C8.2025 13.8096 8.39053 13.7928 8.57439 13.7602C8.70706 13.7371 8.77392 13.5868 8.6987 13.4754C7.96746 12.3932 7.55065 11.0914 7.55065 9.69395C7.55065 8.23557 8.00611 6.87595 8.7969 5.76115C8.82197 5.72648 8.83973 5.67289 8.8157 5.63296C8.79481 5.60144 8.75511 5.58358 8.71959 5.57517C8.45217 5.52054 8.17847 5.49007 7.89224 5.49007C5.25976 5.49007 3.19242 7.98129 3.89755 10.7562C4.37286 12.6244 6.09338 13.8653 8.01029 13.8148ZM8.19675 15.4635C8.19989 15.4793 8.19362 15.5024 8.16437 15.5192C7.45611 15.8712 4.72229 17.402 5.06598 20.6298C5.0806 20.7706 4.96987 20.8904 4.83094 20.8704C4.15819 20.7738 2.42723 20.3997 1.89028 19.2345C1.59256 18.6177 1.59256 17.9032 1.89028 17.2865C2.24128 16.5352 3.08744 16.0183 4.37547 15.764C4.9845 15.6158 6.62875 15.4057 8.16019 15.4341C8.18317 15.4372 8.19466 15.454 8.19675 15.4635Z" fill="url(#paint0_linear_217_1658)"/>
<defs>
<linearGradient id="paint0_linear_217_1658" x1="27.3337" y1="23.3333" x2="-1.23432" y2="11.9441" gradientUnits="userSpaceOnUse">
<stop stop-color="#246BFD"/>
<stop offset="1" stop-color="#5089FF"/>
</linearGradient>
</defs>
</svg>
