<svg width="28" height="28" viewBox="0 0 28 28" fill="none" xmlns="http://www.w3.org/2000/svg">
<path d="M12.2558 27.0664C12.2558 27.0664 14.2853 22.9193 12.9272 20.2968C12.2631 19.0144 11.0679 18.2578 9.92989 17.5373C8.74061 16.7844 7.61371 16.071 7.22045 14.8384C7.22045 14.8384 5.87755 15.3872 6.51856 16.9424C7.15956 18.4976 8.41062 19.26 8.41062 19.26C2.93248 16.9467 1.5262 14.6824 2.18512 8.80055C0.629997 12.3992 0.537057 14.8993 1.83428 17.5218C3.13151 20.1443 4.73314 21.2726 8.197 23.4072C11.6609 25.5417 12.2558 27.0664 12.2558 27.0664Z" fill="url(#paint0_linear_289_13767)"/>
<path d="M15.7447 27.0664C15.7447 27.0664 13.7152 22.9193 15.0734 20.2968C15.7375 19.0144 16.9326 18.2578 18.0706 17.5373C19.2599 16.7844 20.3868 16.071 20.7801 14.8384C20.7801 14.8384 22.123 15.3872 21.482 16.9424C20.841 18.4976 19.5899 19.26 19.5899 19.26C25.068 16.9467 26.4743 14.6824 25.8154 8.80055C27.3705 12.3992 27.4635 14.8993 26.1662 17.5218C24.869 20.1443 23.2674 21.2726 19.8035 23.4072C16.3397 25.5417 15.7447 27.0664 15.7447 27.0664Z" fill="url(#paint1_linear_289_13767)"/>
<path fill-rule="evenodd" clip-rule="evenodd" d="M17.1671 0.933237C17.687 0.933237 18.2061 1.00651 18.6996 1.172C21.7409 2.16 22.8367 5.49448 21.9213 8.40906C21.4022 9.89846 20.5535 11.2578 19.442 12.3684C17.851 13.9081 16.105 15.2748 14.2256 16.4522L14.0196 16.5765L13.8054 16.4439C11.9193 15.2748 10.1635 13.9081 8.55759 12.3602C7.45349 11.2495 6.60399 9.89846 6.07666 8.40906C5.14559 5.49448 6.24145 2.16 9.31563 1.15471C9.55457 1.07238 9.80094 1.01475 10.0481 0.982637L10.2871 0.933105C10.5227 0.933105 10.5939 0.933148 10.6549 0.933185C10.7005 0.933213 10.7404 0.933237 10.8391 0.933237H10.9298C11.4488 0.94888 11.9515 1.03945 12.4384 1.20494H12.487C12.52 1.22058 12.5447 1.23787 12.5612 1.25351C12.7433 1.31197 12.9155 1.37783 13.0803 1.4684L13.3934 1.60837C13.469 1.64869 13.554 1.71029 13.6273 1.76354C13.6738 1.79727 13.7157 1.82765 13.7477 1.84713C13.7611 1.85506 13.7748 1.86303 13.7886 1.87106C13.8592 1.91227 13.9328 1.9552 13.9949 2.00274C14.9103 1.30373 16.0218 0.925004 17.1671 0.933237ZM14.461 5.24267C14.3373 5.11914 14.1697 5.04975 13.9949 5.04975C13.82 5.04975 13.6524 5.11914 13.5288 5.24267C13.4051 5.36619 13.3357 5.53372 13.3357 5.70841V7.6844H11.3582C11.1834 7.6844 11.0157 7.75379 10.8921 7.87732C10.7685 8.00084 10.699 8.16837 10.699 8.34306C10.699 8.51775 10.7685 8.68528 10.8921 8.80881C11.0157 8.93233 11.1834 9.00172 11.3582 9.00172H13.3357V10.9777C13.3357 11.1524 13.4051 11.3199 13.5288 11.4435C13.6524 11.567 13.82 11.6364 13.9949 11.6364C14.1697 11.6364 14.3373 11.567 14.461 11.4435C14.5846 11.3199 14.654 11.1524 14.654 10.9777V9.00172H16.6315C16.8063 9.00172 16.974 8.93233 17.0976 8.80881C17.2212 8.68528 17.2907 8.51775 17.2907 8.34306C17.2907 8.16837 17.2212 8.00084 17.0976 7.87732C16.974 7.75379 16.8063 7.6844 16.6315 7.6844H14.654V5.70841C14.654 5.53372 14.5846 5.36619 14.461 5.24267Z" fill="url(#paint2_linear_289_13767)"/>
<defs>
<linearGradient id="paint0_linear_289_13767" x1="27.0669" y1="27.0664" x2="-4.02939" y2="18.0503" gradientUnits="userSpaceOnUse">
<stop stop-color="#246BFD"/>
<stop offset="1" stop-color="#5089FF"/>
</linearGradient>
<linearGradient id="paint1_linear_289_13767" x1="27.0669" y1="27.0664" x2="-4.02939" y2="18.0503" gradientUnits="userSpaceOnUse">
<stop stop-color="#246BFD"/>
<stop offset="1" stop-color="#5089FF"/>
</linearGradient>
<linearGradient id="paint2_linear_289_13767" x1="27.0669" y1="27.0664" x2="-4.02939" y2="18.0503" gradientUnits="userSpaceOnUse">
<stop stop-color="#246BFD"/>
<stop offset="1" stop-color="#5089FF"/>
</linearGradient>
</defs>
</svg>
