<svg width="140" height="140" viewBox="0 0 140 140" fill="none" xmlns="http://www.w3.org/2000/svg">
<path d="M61.2779 135.333C61.2779 135.333 71.4255 114.597 64.6348 101.485C61.3143 95.0733 55.3386 91.2902 49.6485 87.688C43.7021 83.9235 38.0676 80.3564 36.1013 74.193C36.1013 74.193 29.3868 76.9374 32.5918 84.7134C35.7968 92.4894 42.0521 96.3011 42.0521 96.3011C14.6614 84.7346 7.63003 73.4133 10.9246 44.004C3.14901 61.9973 2.68431 74.4979 9.17044 87.6103C15.6566 100.723 23.6647 106.364 40.984 117.037C58.3033 127.71 61.2779 135.333 61.2779 135.333Z" fill="url(#paint0_linear_96_15901)"/>
<path d="M78.7227 135.333C78.7227 135.333 68.5752 114.597 75.3658 101.485C78.6864 95.0733 84.6621 91.2902 90.3522 87.688C96.2986 83.9235 101.933 80.3564 103.899 74.193C103.899 74.193 110.614 76.9374 107.409 84.7134C104.204 92.4894 97.9485 96.3011 97.9485 96.3011C125.339 84.7346 132.371 73.4133 129.076 44.004C136.852 61.9973 137.316 74.4979 130.83 87.6103C124.344 100.723 116.336 106.364 99.0166 117.037C81.6973 127.71 78.7227 135.333 78.7227 135.333Z" fill="url(#paint1_linear_96_15901)"/>
<path fill-rule="evenodd" clip-rule="evenodd" d="M85.8345 4.66741C88.434 4.66741 91.0295 5.03379 93.4972 5.86123C108.703 10.8012 114.183 27.4736 109.606 42.0465C107.01 49.4935 102.767 56.2901 97.2092 61.8434C89.2539 69.5416 80.5241 76.3752 71.1269 82.262L70.0969 82.8836L69.0258 82.2208C59.5956 76.3752 50.8164 69.5416 42.787 61.8023C37.2665 56.2489 33.019 49.4935 30.3823 42.0465C25.727 27.4736 31.2063 10.8012 46.5772 5.77478C47.7719 5.36312 49.0037 5.07495 50.2396 4.9144L51.4343 4.66675C52.6125 4.66675 52.9686 4.66696 53.2734 4.66715C53.5015 4.66728 53.7009 4.66741 54.1946 4.66741H54.6478C57.2432 4.74562 59.7563 5.19845 62.1911 6.0259H62.4342C62.5989 6.10411 62.7225 6.19056 62.8049 6.26878C63.7154 6.56106 64.5764 6.89039 65.4004 7.34322L66.9659 8.04305C67.3442 8.24465 67.7688 8.55269 68.1358 8.81891C68.3683 8.98759 68.5776 9.13948 68.7374 9.23688C68.8046 9.27651 68.873 9.31636 68.9418 9.35654C69.2951 9.56259 69.6631 9.77723 69.9733 10.0149C74.5504 6.51989 80.108 4.62624 85.8345 4.66741ZM72.3038 26.2145C71.6857 25.5969 70.8474 25.25 69.9733 25.25C69.0992 25.25 68.2609 25.5969 67.6428 26.2145C67.0247 26.8322 66.6775 27.6698 66.6775 28.5433V38.4232H56.79C55.9159 38.4232 55.0776 38.7702 54.4595 39.3878C53.8414 40.0054 53.4942 40.8431 53.4942 41.7165C53.4942 42.59 53.8414 43.4276 54.4595 44.0452C55.0776 44.6629 55.9159 45.0098 56.79 45.0098H66.6775V54.8898C66.6775 55.7632 67.0247 56.6009 67.6428 57.2185C68.2609 57.8361 69.0992 58.1831 69.9733 58.1831C70.8474 58.1831 71.6857 57.8361 72.3038 57.2185C72.9219 56.6009 73.2691 55.7632 73.2691 54.8898V45.0098H83.1565C84.0307 45.0098 84.869 44.6629 85.487 44.0452C86.1051 43.4276 86.4524 42.59 86.4524 41.7165C86.4524 40.8431 86.1051 40.0054 85.487 39.3878C84.869 38.7702 84.0307 38.4232 83.1565 38.4232H73.2691V28.5433C73.2691 27.6698 72.9219 26.8322 72.3038 26.2145Z" fill="url(#paint2_linear_96_15901)"/>
<defs>
<linearGradient id="paint0_linear_96_15901" x1="135.334" y1="135.333" x2="-20.1479" y2="90.2529" gradientUnits="userSpaceOnUse">
<stop stop-color="#246BFD"/>
<stop offset="1" stop-color="#5089FF"/>
</linearGradient>
<linearGradient id="paint1_linear_96_15901" x1="135.334" y1="135.333" x2="-20.1479" y2="90.2529" gradientUnits="userSpaceOnUse">
<stop stop-color="#246BFD"/>
<stop offset="1" stop-color="#5089FF"/>
</linearGradient>
<linearGradient id="paint2_linear_96_15901" x1="135.334" y1="135.333" x2="-20.1479" y2="90.2529" gradientUnits="userSpaceOnUse">
<stop stop-color="#246BFD"/>
<stop offset="1" stop-color="#5089FF"/>
</linearGradient>
</defs>
</svg>
