<svg width="186" height="180" viewBox="0 0 186 180" fill="none" xmlns="http://www.w3.org/2000/svg">
<circle cx="95.5002" cy="90.5" r="70.5" fill="url(#paint0_linear_754_2076)"/>
<circle cx="178.467" cy="27.5" r="7.5" fill="#7CA6FE"/>
<circle cx="20.0334" cy="10" r="10" fill="#7CA6FE"/>
<circle cx="10.0334" cy="133" r="5" fill="#7CA6FE"/>
<circle cx="165.533" cy="160.5" r="2.5" fill="#7CA6FE"/>
<path d="M110.05 96.2035C109.413 96.8205 109.121 97.7129 109.266 98.5881L111.451 110.683C111.636 111.708 111.203 112.746 110.345 113.338C109.504 113.953 108.386 114.026 107.469 113.535L96.5807 107.856C96.2021 107.654 95.7817 107.546 95.3515 107.534H94.6853C94.4543 107.568 94.2281 107.642 94.0216 107.755L83.1312 113.461C82.5928 113.731 81.9831 113.827 81.3858 113.731C79.9304 113.456 78.9594 112.07 79.1978 110.607L81.3858 98.5119C81.5308 97.6293 81.2383 96.732 80.6015 96.1052L71.7245 87.501C70.9821 86.7807 70.724 85.699 71.0632 84.7231C71.3926 83.7496 72.2334 83.0391 73.2487 82.8793L85.4666 81.1069C86.3958 81.011 87.212 80.4456 87.6299 79.6097L93.0137 68.5718C93.1415 68.326 93.3062 68.0998 93.5053 67.9081L93.7266 67.736C93.8421 67.6082 93.9749 67.5025 94.1224 67.4164L94.3903 67.3181L94.8083 67.146H95.8432C96.7675 67.2419 97.5813 67.795 98.0065 68.621L103.462 79.6097C103.855 80.4136 104.619 80.9717 105.502 81.1069L117.72 82.8793C118.752 83.0268 119.615 83.7397 119.957 84.7231C120.279 85.7089 120.001 86.7905 119.244 87.501L110.05 96.2035Z" fill="white"/>
<circle cx="106.533" cy="4.5" r="2.5" fill="#7CA6FE"/>
<circle cx="62.5334" cy="176.5" r="3.5" fill="#7CA6FE"/>
<circle cx="122.033" cy="171" r="1" fill="#7CA6FE"/>
<circle cx="170.533" cy="110.5" r="2.5" fill="#7CA6FE"/>
<circle cx="1.03345" cy="75" r="1" fill="#7CA6FE"/>
<defs>
<linearGradient id="paint0_linear_754_2076" x1="166" y1="161" x2="-1.7771" y2="112.355" gradientUnits="userSpaceOnUse">
<stop stop-color="#246BFD"/>
<stop offset="1" stop-color="#5089FF"/>
</linearGradient>
</defs>
</svg>
