<svg width="23" height="21" viewBox="0 0 23 21" fill="none" xmlns="http://www.w3.org/2000/svg">
<path d="M2.16417 2.11817C3.33083 1.144 4.83467 0.5 6.125 0.5C7.13883 0.5 7.9345 0.661 8.58317 0.931667C9.2365 1.20583 9.69383 1.571 10.0473 1.91517C10.2013 2.06683 10.339 2.21617 10.4522 2.33983L10.4872 2.37833C10.6155 2.51833 10.7053 2.614 10.7905 2.68983C10.9352 2.81817 11.0005 2.83333 11.0833 2.83333C11.1662 2.83333 11.2315 2.81817 11.375 2.68983C11.4613 2.614 11.5523 2.51833 11.6795 2.37833L11.7145 2.33983C11.8288 2.21617 11.9653 2.06567 12.1193 1.91517C12.5391 1.49592 13.0364 1.16229 13.5835 0.932833C14.2322 0.661 15.0267 0.5 16.0417 0.5C17.332 0.5 18.8358 1.144 20.0025 2.11817C21.1762 3.09817 22.1667 4.546 22.1667 6.27267C22.1667 7.18033 22.1643 8.963 20.5648 10.867C20.1332 11.5495 19.8368 12.3545 19.8333 13.0463C19.8217 15.2933 19.3235 17.1915 18.5698 18.5588C17.8512 19.8655 16.7545 20.9167 15.4583 20.9167C15.0407 20.9167 14.6522 20.8 14.3197 20.555C14.0256 20.3282 13.793 20.0314 13.643 19.6917C13.3642 19.0943 13.2428 18.322 13.1553 17.5882C13.1195 17.2781 13.086 16.9678 13.055 16.6572C12.9208 15.3633 12.782 14.0205 12.3235 12.8118C12.1065 12.3953 11.7332 12.1667 11.375 12.1667H10.7917C10.4253 12.1667 10.0415 12.4058 9.828 12.8433C9.19333 14.1383 9.11517 15.6002 9.03933 17.0025L9.009 17.5485C8.96583 18.266 8.89817 19.0605 8.624 19.6788C8.47236 20.0401 8.22159 20.3512 7.90067 20.576C7.54704 20.808 7.13115 20.9268 6.70833 20.9167C5.26167 20.9167 4.1545 19.9005 3.45333 18.5367C2.74517 17.16 2.345 15.263 2.33333 13.0463C2.32983 12.4257 2.09183 11.7105 1.722 11.0665C1.63196 10.9234 1.52969 10.7883 1.41633 10.6628C0 8.98167 0 7.12667 0 6.29367V6.27267C0 4.546 0.9905 3.09817 2.16417 2.11817ZM15.4583 4C15.2263 4 15.0037 4.09219 14.8396 4.25628C14.6755 4.42038 14.5833 4.64294 14.5833 4.875C14.5833 5.10706 14.6755 5.32962 14.8396 5.49372C15.0037 5.65781 15.2263 5.75 15.4583 5.75C16.2913 5.75 16.9167 6.37533 16.9167 7.20833C16.9167 7.4404 17.0089 7.66296 17.1729 7.82705C17.337 7.99115 17.5596 8.08333 17.7917 8.08333C18.0237 8.08333 18.2463 7.99115 18.4104 7.82705C18.5745 7.66296 18.6667 7.4404 18.6667 7.20833C18.6714 6.78571 18.5916 6.3664 18.432 5.97503C18.2724 5.58366 18.0363 5.22811 17.7374 4.92925C17.4386 4.63039 17.083 4.39424 16.6916 4.23467C16.3003 4.0751 15.881 3.99531 15.4583 4Z" fill="url(#paint0_linear_523_4555)"/>
<defs>
<linearGradient id="paint0_linear_523_4555" x1="22.1667" y1="20.9173" x2="-3.84915" y2="12.7279" gradientUnits="userSpaceOnUse">
<stop stop-color="#246BFD"/>
<stop offset="1" stop-color="#5089FF"/>
</linearGradient>
</defs>
</svg>
