<svg width="26" height="22" viewBox="0 0 26 22" fill="none" xmlns="http://www.w3.org/2000/svg">
<path fill-rule="evenodd" clip-rule="evenodd" d="M12.9679 20.7629C9.1891 20.7629 5.96094 20.1913 5.96094 17.9023C5.96094 15.6133 9.1681 13.6206 12.9679 13.6206C16.7468 13.6206 19.9749 15.5946 19.9749 17.8824C19.9749 20.1703 16.7678 20.7629 12.9679 20.7629Z" stroke="#212121" stroke-width="1.5" stroke-linecap="round" stroke-linejoin="round"/>
<path fill-rule="evenodd" clip-rule="evenodd" d="M12.9673 10.3569C15.4476 10.3569 17.4589 8.34676 17.4589 5.86642C17.4589 3.38609 15.4476 1.37476 12.9673 1.37476C10.4869 1.37476 8.4756 3.38609 8.4756 5.86642C8.4686 8.33742 10.4636 10.3488 12.9358 10.3569H12.9673Z" stroke="#212121" stroke-width="1.5" stroke-linecap="round" stroke-linejoin="round"/>
<path d="M20.4222 9.12354C21.8653 8.73737 22.9294 7.42137 22.9294 5.85454C22.9294 4.22004 21.7708 2.85504 20.2285 2.54004" stroke="#212121" stroke-width="1.5" stroke-linecap="round" stroke-linejoin="round"/>
<path d="M21.0996 12.802C23.1459 12.802 24.8936 14.1892 24.8936 15.4282C24.8936 16.1573 24.2904 16.9518 23.3758 17.1665" stroke="#212121" stroke-width="1.5" stroke-linecap="round" stroke-linejoin="round"/>
<path d="M5.51419 9.12354C4.06986 8.73737 3.00586 7.42137 3.00586 5.85454C3.00586 4.22004 4.16553 2.85504 5.70669 2.54004" stroke="#212121" stroke-width="1.5" stroke-linecap="round" stroke-linejoin="round"/>
<path d="M4.83502 12.802C2.78868 12.802 1.04102 14.1892 1.04102 15.4282C1.04102 16.1573 1.64418 16.9518 2.56002 17.1665" stroke="#212121" stroke-width="1.5" stroke-linecap="round" stroke-linejoin="round"/>
</svg>
