<svg width="18" height="16" viewBox="0 0 18 16" fill="none" xmlns="http://www.w3.org/2000/svg">
<path fill-rule="evenodd" clip-rule="evenodd" d="M13.5332 3.197C13.5665 3.25527 13.6248 3.29689 13.6998 3.29689C15.6998 3.29689 17.3332 4.92841 17.3332 6.92619V11.8707C17.3332 13.8685 15.6998 15.5 13.6998 15.5H4.29984C2.2915 15.5 0.666504 13.8685 0.666504 11.8707V6.92619C0.666504 4.92841 2.2915 3.29689 4.29984 3.29689C4.3665 3.29689 4.43317 3.2636 4.45817 3.197L4.50817 3.09711C4.5369 3.03665 4.56638 2.97455 4.59631 2.9115C4.8095 2.46246 5.04536 1.96567 5.1915 1.6737C5.57484 0.924528 6.22484 0.508324 7.03317 0.5H10.9582C11.7665 0.508324 12.4248 0.924528 12.8082 1.6737C12.9394 1.93592 13.1394 2.35833 13.3322 2.76545C13.3719 2.84942 13.4114 2.93274 13.4498 3.01387L13.5332 3.197ZM12.9248 6.39345C12.9248 6.80966 13.2582 7.14262 13.6748 7.14262C14.0915 7.14262 14.4332 6.80966 14.4332 6.39345C14.4332 5.97725 14.0915 5.63596 13.6748 5.63596C13.2582 5.63596 12.9248 5.97725 12.9248 6.39345ZM7.55817 7.68368C7.94984 7.29245 8.45817 7.08435 8.99984 7.08435C9.5415 7.08435 10.0498 7.29245 10.4332 7.67536C10.8165 8.05827 11.0248 8.56604 11.0248 9.1071C11.0165 10.2225 10.1165 11.1299 8.99984 11.1299C8.45817 11.1299 7.94984 10.9218 7.5665 10.5388C7.18317 10.1559 6.97484 9.64817 6.97484 9.1071V9.09878C6.9665 8.57436 7.17484 8.06659 7.55817 7.68368ZM11.3082 11.4212C10.7165 12.0122 9.89984 12.3785 8.99984 12.3785C8.12484 12.3785 7.30817 12.0372 6.68317 11.4212C6.0665 10.7969 5.72484 9.98113 5.72484 9.1071C5.7165 8.2414 6.05817 7.42564 6.67484 6.80133C7.29984 6.17703 8.12484 5.83574 8.99984 5.83574C9.87484 5.83574 10.6998 6.17703 11.3165 6.79301C11.9332 7.41731 12.2748 8.2414 12.2748 9.1071C12.2665 10.0144 11.8998 10.8302 11.3082 11.4212Z" fill="#9E9E9E"/>
</svg>
