<svg width="18" height="20" viewBox="0 0 18 20" fill="none" xmlns="http://www.w3.org/2000/svg">
<path d="M17.9471 6.30502C17.937 5.54764 17.7952 4.79779 17.5281 4.08902C17.2964 3.49117 16.9426 2.94822 16.4892 2.49485C16.0359 2.04148 15.4929 1.68767 14.8951 1.45602C14.1954 1.19338 13.4562 1.05136 12.7091 1.03602C11.7471 0.993018 11.4421 0.981018 9.00007 0.981018C6.55807 0.981018 6.24507 0.981018 5.29007 1.03602C4.54323 1.05147 3.80442 1.19349 3.10507 1.45602C2.50713 1.68751 1.96409 2.04126 1.5107 2.49465C1.05732 2.94804 0.703559 3.49108 0.47207 4.08902C0.208901 4.78815 0.0671935 5.52713 0.0530703 6.27402C0.0100703 7.23702 -0.00292969 7.54202 -0.00292969 9.98402C-0.00292969 12.426 -0.00292969 12.738 0.0530703 13.694C0.0680703 14.442 0.20907 15.18 0.47207 15.881C0.703948 16.4788 1.05797 17.0216 1.51151 17.4748C1.96505 17.928 2.50813 18.2816 3.10607 18.513C3.8035 18.7862 4.54244 18.9384 5.29107 18.963C6.25407 19.006 6.55907 19.019 9.00107 19.019C11.4431 19.019 11.7561 19.019 12.7111 18.963C13.4582 18.9483 14.1974 18.8066 14.8971 18.544C15.4948 18.3121 16.0376 17.9582 16.4909 17.5049C16.9442 17.0515 17.2982 16.5087 17.5301 15.911C17.7931 15.211 17.9341 14.473 17.9491 13.724C17.9921 12.762 18.0051 12.457 18.0051 10.014C18.0031 7.57202 18.0031 7.26202 17.9471 6.30502ZM8.99407 14.602C6.44007 14.602 4.37107 12.533 4.37107 9.97902C4.37107 7.42502 6.44007 5.35602 8.99407 5.35602C10.2202 5.35602 11.396 5.84308 12.263 6.71006C13.13 7.57704 13.6171 8.75292 13.6171 9.97902C13.6171 11.2051 13.13 12.381 12.263 13.248C11.396 14.115 10.2202 14.602 8.99407 14.602ZM13.8011 6.26302C13.6595 6.26315 13.5192 6.23536 13.3884 6.18123C13.2575 6.1271 13.1386 6.0477 13.0385 5.94757C12.9384 5.84745 12.859 5.72855 12.8049 5.59771C12.7507 5.46686 12.7229 5.32662 12.7231 5.18502C12.7231 5.04352 12.7509 4.90341 12.8051 4.77268C12.8592 4.64195 12.9386 4.52317 13.0387 4.42311C13.1387 4.32306 13.2575 4.24369 13.3882 4.18954C13.519 4.13539 13.6591 4.10752 13.8006 4.10752C13.9421 4.10752 14.0822 4.13539 14.2129 4.18954C14.3436 4.24369 14.4624 4.32306 14.5625 4.42311C14.6625 4.52317 14.7419 4.64195 14.7961 4.77268C14.8502 4.90341 14.8781 5.04352 14.8781 5.18502C14.8781 5.78102 14.3961 6.26302 13.8011 6.26302Z" fill="#246BFD"/>
</svg>
