<svg width="14" height="14" viewBox="0 0 14 14" fill="none" xmlns="http://www.w3.org/2000/svg">
<path opacity="0.4" d="M7.65054 1.0757L9.13486 4.05855C9.24422 4.27466 9.45293 4.42474 9.69365 4.45809L13.0277 4.94367C13.2224 4.97102 13.3991 5.07373 13.5185 5.23048C13.6365 5.38523 13.6872 5.58133 13.6585 5.77409C13.6352 5.93417 13.5598 6.08225 13.4445 6.19564L11.0286 8.5375C10.8519 8.70091 10.7719 8.94304 10.8146 9.17982L11.4093 12.4722C11.4727 12.8697 11.2093 13.2446 10.8146 13.3199C10.6519 13.3459 10.4852 13.3186 10.3385 13.2439L7.36448 11.6944C7.14377 11.583 6.88304 11.583 6.66233 11.6944L3.68836 13.2439C3.32295 13.438 2.87018 13.3059 2.66681 12.9457C2.59146 12.8023 2.56478 12.6389 2.58946 12.4795L3.18425 9.18649C3.22693 8.95037 3.14624 8.70691 2.9702 8.5435L0.554352 6.20298C0.266957 5.9255 0.258289 5.4686 0.535015 5.18112C0.541016 5.17512 0.547684 5.16845 0.554352 5.16178C0.669044 5.04505 0.819743 4.97102 0.982444 4.95167L4.31649 4.46543C4.55654 4.43141 4.76526 4.28267 4.87528 4.06522L6.30625 1.0757C6.43361 0.819572 6.69767 0.660157 6.9844 0.666827H7.07375C7.32247 0.696843 7.53919 0.850921 7.65054 1.0757Z" fill="#246BFD"/>
<path d="M6.99435 11.6114C6.86521 11.6154 6.73941 11.6501 6.62625 11.7121L3.66682 13.2581C3.30471 13.4309 2.87138 13.2968 2.66836 12.9505C2.59315 12.809 2.56586 12.6469 2.59115 12.4881L3.18224 9.20206C3.22217 8.9632 3.1423 8.72033 2.96857 8.55219L0.551633 6.21228C0.264742 5.93138 0.259417 5.47034 0.540317 5.18277C0.544311 5.17876 0.547639 5.17543 0.551633 5.17209C0.666122 5.05866 0.813894 4.98394 0.972982 4.96058L4.30983 4.46951C4.55146 4.43882 4.76113 4.28803 4.86763 4.06919L6.31806 1.04204C6.45585 0.797838 6.72011 0.652385 6.99967 0.667731C6.99435 0.865894 6.99435 11.4766 6.99435 11.6114Z" fill="#246BFD"/>
</svg>
