<svg width="25" height="24" viewBox="0 0 25 24" fill="none" xmlns="http://www.w3.org/2000/svg">
<path fill-rule="evenodd" clip-rule="evenodd" d="M0.833008 11.9999C0.833008 5.55986 6.04801 0.333191 12.4997 0.333191C18.9397 0.333191 24.1663 5.55986 24.1663 11.9999C24.1663 18.4399 18.9397 23.6665 12.4997 23.6665C6.04801 23.6665 0.833008 18.4399 0.833008 11.9999ZM7.27301 13.3999C6.50301 13.3999 5.87301 12.7699 5.87301 11.9999C5.87301 11.2299 6.50301 10.601 7.27301 10.601C8.04301 10.601 8.66134 11.2299 8.66134 11.9999C8.66134 12.7699 8.04301 13.3999 7.27301 13.3999ZM11.0997 11.9999C11.0997 12.7699 11.7297 13.3999 12.4997 13.3999C13.2697 13.3999 13.888 12.7699 13.888 11.9999C13.888 11.2299 13.2697 10.601 12.4997 10.601C11.7297 10.601 11.0997 11.2299 11.0997 11.9999ZM16.3263 11.9999C16.3263 12.7699 16.9447 13.3999 17.7263 13.3999C18.4963 13.3999 19.1147 12.7699 19.1147 11.9999C19.1147 11.2299 18.4963 10.601 17.7263 10.601C16.9447 10.601 16.3263 11.2299 16.3263 11.9999Z" fill="#246BFD"/>
</svg>
