<svg width="25" height="24" viewBox="0 0 25 24" fill="none" xmlns="http://www.w3.org/2000/svg">
<path fill-rule="evenodd" clip-rule="evenodd" d="M16.1195 11.2867C16.8623 11.2893 17.5914 11.0863 18.226 10.7001C18.8698 11.0854 19.6082 11.284 20.3585 11.2737L22.7696 10.4823C23.4483 9.97674 23.915 9.27543 24.09 8.49698C24.2648 7.71482 24.137 6.89548 23.7322 6.20376C23.3258 5.4992 22.6627 4.94178 21.8557 4.62548C21.671 3.87166 21.2069 3.19692 20.5393 2.71403L18.1865 1.97123H17.9207C17.3976 1.28158 16.6121 0.789623 15.7131 0.589339L10.6684 0.333313C9.82964 0.396185 9.03888 0.711842 8.42377 1.22973C8.13181 1.1676 7.83427 1.13545 7.53578 1.1338C6.81994 1.13306 6.11674 1.32228 5.49794 1.68215C4.8919 2.03864 4.41226 2.54615 4.11864 3.14312L2.20136 4.36815C1.73053 4.93439 1.47156 5.6469 1.46893 6.3833C1.4644 6.68665 1.50912 6.98869 1.60116 7.28037C1.09883 7.86955 0.827896 8.59291 0.833081 9.337C0.831785 10.1991 1.1967 11.0294 1.8533 11.6568C1.9058 12.2738 2.14497 12.8669 2.54424 13.3705C2.95793 13.8849 3.50113 14.2797 4.11799 14.5146C4.83076 14.9134 5.44567 15.466 5.91795 16.1324C6.37131 16.7736 6.66264 17.5151 6.76705 18.2934H8.53006V13.274L6.81696 11.7521L5.65868 12.911C5.53706 13.0325 5.37214 13.1008 5.2002 13.1007C5.02826 13.1007 4.86339 13.0323 4.74185 12.9107C4.62032 12.789 4.55207 12.6241 4.55213 12.4522C4.55219 12.2802 4.62055 12.1154 4.74218 11.9938L6.09296 10.6437L5.68137 8.37966L3.84965 7.4638C3.69588 7.38687 3.57897 7.25201 3.52464 7.08888C3.4703 6.92576 3.48299 6.74773 3.55992 6.59396C3.63685 6.44019 3.77171 6.32328 3.93483 6.26894C4.09796 6.21461 4.27599 6.2273 4.42976 6.30423L6.22324 7.20129L8.46654 5.77338L7.7756 3.92999C7.7189 3.76994 7.72726 3.59403 7.7989 3.44008C7.87054 3.28613 7.99973 3.16645 8.15869 3.10675C8.31765 3.04706 8.49368 3.05212 8.64895 3.12086C8.80421 3.1896 8.9263 3.31652 8.98897 3.47433L9.72658 5.44087H10.6334L11.0547 4.59955L10.4383 3.16191C10.3734 3.00445 10.3731 2.82778 10.4375 2.6701C10.5018 2.51242 10.6256 2.3864 10.7822 2.3193C10.9387 2.25219 11.1153 2.24938 11.2739 2.31149C11.4325 2.37359 11.5603 2.4956 11.6296 2.65116L12.165 3.90018L14.3039 4.28908C14.3158 4.27779 14.3281 4.26698 14.3409 4.25667L15.667 3.19627C15.8015 3.09166 15.9717 3.04418 16.1408 3.06409C16.31 3.084 16.4645 3.16971 16.571 3.30267C16.6775 3.43563 16.7273 3.60516 16.7098 3.77459C16.6922 3.94403 16.6087 4.09974 16.4772 4.20806L15.5231 4.9716L16.6438 6.41247L17.0833 5.53356C17.1371 5.42591 17.2198 5.33536 17.3221 5.27206C17.4245 5.20875 17.5424 5.17519 17.6627 5.17512H19.254C19.4259 5.17512 19.5908 5.24341 19.7123 5.36496C19.8339 5.48652 19.9022 5.65138 19.9022 5.82329C19.9022 5.99519 19.8339 6.16006 19.7123 6.28161C19.5908 6.40317 19.4259 6.47145 19.254 6.47145H18.0633L17.7917 7.01527L19.1295 7.31213C19.1814 7.32379 19.2313 7.34194 19.2786 7.36528L20.339 7.89548C20.4152 7.93353 20.4831 7.98621 20.539 8.05051C20.5948 8.11482 20.6374 8.18949 20.6644 8.27026C20.6913 8.35103 20.7021 8.43632 20.6961 8.52127C20.6901 8.60621 20.6674 8.68914 20.6294 8.76532C20.5914 8.8415 20.5387 8.90944 20.4744 8.96526C20.4101 9.02108 20.3354 9.06369 20.2546 9.09066C20.0915 9.14511 19.9134 9.13254 19.7596 9.0557L18.7705 8.5605L16.4617 8.0478C16.3145 8.01489 16.1834 7.93169 16.0909 7.81251L14.3863 5.62171L12.2713 5.23734C12.2307 5.27521 12.1854 5.30767 12.1365 5.33392L11.6821 6.242V6.76637H12.6245C12.7253 6.76618 12.8247 6.78948 12.9149 6.83443L15.0364 7.89548C15.1125 7.93357 15.1804 7.98628 15.2362 8.05061C15.2919 8.11494 15.3345 8.18962 15.3614 8.27039C15.3883 8.35116 15.399 8.43645 15.393 8.52137C15.3869 8.60628 15.3642 8.68918 15.3261 8.76532C15.288 8.84146 15.2353 8.90935 15.171 8.96511C15.1066 9.02088 15.032 9.06343 14.9512 9.09033C14.8704 9.11724 14.7851 9.12797 14.7002 9.12191C14.6153 9.11586 14.5324 9.09314 14.4563 9.05505L12.4716 8.06271H11.6821V9.27089C11.6821 9.44279 11.6138 9.60766 11.4923 9.72921C11.3707 9.85077 11.2058 9.91906 11.0339 9.91906C10.862 9.91906 10.6972 9.85077 10.5756 9.72921C10.4541 9.60766 10.3858 9.44279 10.3858 9.27089V6.7372H9.36685L6.97641 8.2578L7.38929 10.5264L9.60861 12.4988C9.67692 12.5596 9.73158 12.6342 9.769 12.7176C9.80642 12.8011 9.82577 12.8915 9.82575 12.9829V18.2934H11.7171V14.7058C11.7186 14.0613 11.9167 13.4327 12.2849 12.9039C12.6718 12.3504 13.2041 11.9146 13.823 11.6445C14.1795 11.5213 14.2663 11.356 14.3739 11.1532C14.4452 11.0183 14.5256 10.8667 14.7 10.6994C14.851 10.7934 14.9683 10.8758 15.0701 10.9477C15.3857 11.17 15.5517 11.2873 16.1201 11.2873L16.1195 11.2867ZM11.8519 21.0935H6.66658V19.7971H11.8519V21.0935ZM11.8519 23.6861H6.66658V22.3898H11.8519V23.6861Z" fill="url(#paint0_linear_523_4560)"/>
<defs>
<linearGradient id="paint0_linear_523_4560" x1="24.1663" y1="23.6861" x2="-3.60182" y2="15.6417" gradientUnits="userSpaceOnUse">
<stop stop-color="#246BFD"/>
<stop offset="1" stop-color="#5089FF"/>
</linearGradient>
</defs>
</svg>
