<svg width="23" height="20" viewBox="0 0 23 20" fill="none" xmlns="http://www.w3.org/2000/svg">
<path fill-rule="evenodd" clip-rule="evenodd" d="M1.18938 6.02359C0.534881 5.4245 0.0880474 4.45267 0.00054735 2.88292C-0.0028373 2.80666 0.00950291 2.73052 0.0368007 2.65923C0.0640985 2.58795 0.10577 2.52304 0.159224 2.46855C0.212678 2.41405 0.276772 2.37114 0.347519 2.34247C0.418266 2.31381 0.494154 2.3 0.570464 2.30192C1.54755 2.31942 2.29596 2.38592 2.86763 2.5545C3.11263 1.91925 3.60088 1.32017 4.33296 0.772418C4.42496 0.703773 4.53668 0.666687 4.65146 0.666687C4.76625 0.666687 4.87797 0.703773 4.96996 0.772418C5.70846 1.32425 6.19846 1.92917 6.44171 2.57025C7.0303 2.37192 7.78455 2.31475 8.73421 2.30075C8.81048 2.29907 8.88628 2.31309 8.9569 2.34193C9.02752 2.37078 9.09146 2.41383 9.14474 2.46843C9.19803 2.52302 9.23951 2.58799 9.26663 2.65929C9.29375 2.7306 9.30592 2.80671 9.30238 2.88292C9.21488 4.45267 8.76805 5.4245 8.11355 6.023C8.43321 6.26158 8.61871 6.66059 8.55105 7.09284C8.30777 8.61472 8.01419 10.1281 7.6708 11.6306H4.06813V12.7973H7.39605C6.90726 14.8063 6.33155 16.7933 5.67055 18.7525C5.60343 18.9704 5.46825 19.161 5.28484 19.2964C5.10143 19.4319 4.87945 19.5049 4.65146 19.5049C4.42348 19.5049 4.20149 19.4319 4.01808 19.2964C3.83467 19.161 3.6995 18.9704 3.63238 18.7525C3.35706 17.9391 3.09724 17.1205 2.85305 16.2973H4.06813V15.1306H2.51705C1.96521 13.1525 1.55455 11.3564 1.25646 9.88058H3.4848V8.71392H1.03071C0.914048 8.081 0.822464 7.53558 0.752464 7.09225C0.720203 6.89118 0.743904 6.68511 0.82097 6.49661C0.898036 6.30811 1.02549 6.14446 1.18938 6.02359ZM5.35088 2.98383L5.74871 4.03384L6.8133 3.67567C7.10671 3.57708 7.50396 3.51817 8.0698 3.489C7.89655 4.616 7.47946 5.092 7.09855 5.33817C6.55546 5.68933 5.76388 5.79608 4.66896 5.79725H4.63396C3.53905 5.79608 2.74746 5.68933 2.20438 5.33758C1.82405 5.092 1.40755 4.61659 1.23371 3.49192C1.81763 3.524 2.23296 3.5835 2.53746 3.67334L3.5688 3.97783L3.95613 2.9745C4.06696 2.68575 4.28221 2.362 4.65146 2.02134C5.0248 2.3655 5.24063 2.69275 5.35088 2.98383ZM16.7305 3.87633C15.5796 5.02725 15.4676 6.63375 16.1145 8.14634C18.946 6.29309 22.1515 8.58559 22.1515 12.2139C22.1515 15.4357 19.2785 18.0473 15.7348 18.0473C12.191 18.0473 9.31813 15.4357 9.31813 12.2139C9.31813 8.83525 12.0977 6.61392 14.7665 7.82142C14.3109 6.18808 14.5465 4.41008 15.9057 3.0515L16.7305 3.87633ZM20.384 13.5218C20.404 13.447 20.409 13.3689 20.3986 13.2922C20.3882 13.2154 20.3626 13.1415 20.3233 13.0748C20.284 13.008 20.2319 12.9498 20.1698 12.9034C20.1078 12.857 20.0372 12.8235 19.962 12.8047C19.8869 12.7859 19.8088 12.7823 19.7322 12.794C19.6557 12.8057 19.5822 12.8326 19.5162 12.873C19.4501 12.9134 19.3927 12.9666 19.3474 13.0294C19.3021 13.0922 19.2698 13.1634 19.2523 13.2388C19.1413 13.7023 18.9041 14.126 18.5671 14.4629C18.2302 14.7999 17.8065 15.0371 17.343 15.1481C17.1939 15.1866 17.0661 15.2825 16.9874 15.4148C16.9087 15.5472 16.8856 15.7053 16.923 15.8547C16.9604 16.004 17.0554 16.1325 17.1872 16.2122C17.319 16.2918 17.4769 16.3161 17.6265 16.2798C18.2949 16.1173 18.9057 15.7742 19.392 15.2878C19.8784 14.8015 20.2216 14.1907 20.384 13.5223V13.5218Z" fill="url(#paint0_linear_523_6263)"/>
<path d="M16.9014 6.38059C18.6514 6.38059 19.818 5.21393 19.818 3.46393C18.068 3.46393 16.9014 4.63059 16.9014 6.38059Z" fill="#212121"/>
<defs>
<linearGradient id="paint0_linear_523_6263" x1="22.1515" y1="19.5049" x2="-3.44712" y2="10.7775" gradientUnits="userSpaceOnUse">
<stop stop-color="#246BFD"/>
<stop offset="1" stop-color="#5089FF"/>
</linearGradient>
</defs>
</svg>
