<svg width="25" height="20" viewBox="0 0 25 20" fill="none" xmlns="http://www.w3.org/2000/svg">
<path fill-rule="evenodd" clip-rule="evenodd" d="M7.94683 10C7.94683 12.4889 9.98423 14.514 12.4997 14.514C15.0037 14.514 17.0411 12.4889 17.0411 10C17.0411 7.49982 15.0037 5.47477 12.4997 5.47477C9.98423 5.47477 7.94683 7.49982 7.94683 10ZM19.1924 3.05376C21.1842 4.59234 22.8802 6.84366 24.098 9.66063C24.1891 9.87558 24.1891 10.1245 24.098 10.3281C21.6623 15.962 17.3257 19.3334 12.4997 19.3334H12.4883C7.67366 19.3334 3.33707 15.962 0.9013 10.3281C0.810244 10.1245 0.810244 9.87558 0.9013 9.66063C3.33707 4.02669 7.67366 0.666687 12.4883 0.666687H12.4997C14.9127 0.666687 17.2005 1.50386 19.1924 3.05376ZM12.501 12.8145C14.0604 12.8145 15.3352 11.5474 15.3352 9.99753C15.3352 8.43632 14.0604 7.16925 12.501 7.16925C12.3645 7.16925 12.2279 7.18056 12.1027 7.20319C12.0571 8.44763 11.0327 9.44319 9.76933 9.44319H9.71242C9.67828 9.6242 9.65551 9.80521 9.65551 9.99753C9.65551 11.5474 10.9303 12.8145 12.501 12.8145Z" fill="url(#paint0_linear_523_1705)"/>
<defs>
<linearGradient id="paint0_linear_523_1705" x1="24.1663" y1="19.3334" x2="-2.43776" y2="9.69134" gradientUnits="userSpaceOnUse">
<stop stop-color="#246BFD"/>
<stop offset="1" stop-color="#5089FF"/>
</linearGradient>
</defs>
</svg>
