<svg width="27" height="21" viewBox="0 0 27 21" fill="none" xmlns="http://www.w3.org/2000/svg">
<path d="M9.07955 3.16258C9.08776 3.51728 9.02499 3.87003 8.89492 4.20012C8.76486 4.53021 8.57013 4.83098 8.32218 5.08474C8.07422 5.3385 7.77805 5.54014 7.45105 5.6778C7.12406 5.81547 6.77285 5.88639 6.41806 5.88639C6.06327 5.88639 5.71206 5.81547 5.38507 5.6778C5.05807 5.54014 4.7619 5.3385 4.51394 5.08474C4.26599 4.83098 4.07126 4.53021 3.94119 4.20012C3.81113 3.87003 3.74836 3.51728 3.75657 3.16258C3.768 2.46416 4.05347 1.79821 4.55142 1.30835C5.04937 0.81848 5.7199 0.543945 6.41842 0.543945C7.11693 0.543945 7.78746 0.81848 8.28541 1.30835C8.78336 1.79821 9.06883 2.46416 9.08026 3.16258H9.07955Z" fill="url(#paint0_linear_523_5685)"/>
<path fill-rule="evenodd" clip-rule="evenodd" d="M3.30211 11.9042C3.10167 12.2249 2.78205 12.4528 2.41356 12.5378C2.04506 12.6229 1.65788 12.558 1.33718 12.3576C1.01649 12.1572 0.788551 11.8376 0.703513 11.4691C0.618476 11.1006 0.683306 10.7134 0.88374 10.3927L0.886592 10.3884L0.891583 10.3806L0.908694 10.3535C0.999132 10.2109 1.09207 10.07 1.18746 9.93069C1.41871 9.58963 1.66173 9.25671 1.91611 8.93254C2.20058 8.57321 2.54993 8.16753 2.91925 7.83814C3.1039 7.67345 3.32635 7.49806 3.57802 7.3569C3.81473 7.22428 4.18476 7.0603 4.63749 7.0603H8.19944C8.65218 7.0603 9.0222 7.22428 9.25962 7.3569C9.51058 7.49806 9.73374 7.67345 9.91768 7.83814C10.287 8.16753 10.6371 8.57321 10.9208 8.93325C11.2799 9.38974 11.6161 9.86372 11.9282 10.3535L11.9461 10.3806L11.9511 10.3877L11.9532 10.392C11.9282 10.3535 11.9532 10.392 11.9532 10.392C12.1481 10.7124 12.2089 11.0968 12.1225 11.4618C12.036 11.8268 11.8091 12.143 11.4911 12.3419C11.1731 12.5409 10.7895 12.6065 10.4235 12.5245C10.0574 12.4426 9.73839 12.2197 9.53553 11.9042L9.5334 11.9013L9.52199 11.8835C9.48636 11.8273 9.45024 11.7715 9.41362 11.7159V13.4869L9.92909 18.9019C9.9615 19.271 9.84896 19.6382 9.61531 19.9258C9.38166 20.2134 9.04525 20.3987 8.67733 20.4425C8.3094 20.4864 7.93887 20.3853 7.64419 20.1606C7.34952 19.936 7.15385 19.6055 7.09863 19.2391L6.3707 14.1486L5.64348 19.2391C5.59141 19.6083 5.3968 19.9424 5.10135 20.1699C4.80589 20.3973 4.43311 20.5 4.06287 20.4559C3.69263 20.4118 3.35439 20.2244 3.12063 19.934C2.88687 19.6435 2.77619 19.273 2.8123 18.9019L3.41119 12.6207H3.42402V11.7152C3.38723 11.771 3.35087 11.8271 3.31494 11.8835L3.30425 11.9013L3.30211 11.9042Z" fill="url(#paint1_linear_523_5685)"/>
<path d="M23.3393 3.16184C23.3393 3.86781 23.0589 4.54486 22.5597 5.04405C22.0605 5.54324 21.3834 5.82369 20.6775 5.82369C19.9715 5.82369 19.2945 5.54324 18.7953 5.04405C18.2961 4.54486 18.0156 3.86781 18.0156 3.16184C18.0156 2.45588 18.2961 1.77883 18.7953 1.27964C19.2945 0.780443 19.9715 0.5 20.6775 0.5C21.3834 0.5 22.0605 0.780443 22.5597 1.27964C23.0589 1.77883 23.3393 2.45588 23.3393 3.16184Z" fill="url(#paint2_linear_523_5685)"/>
<path fill-rule="evenodd" clip-rule="evenodd" d="M17.5646 11.7544C17.3629 12.0698 17.0452 12.2932 16.6802 12.3764C16.3152 12.4596 15.9321 12.3958 15.6137 12.199C15.2952 12.0021 15.067 11.6879 14.9782 11.3242C14.8894 10.9605 14.9472 10.5765 15.1391 10.2551L15.1413 10.2508L15.147 10.243L15.1634 10.2159L15.224 10.1203C15.5164 9.66522 15.8287 9.22323 16.1601 8.79565C16.441 8.43631 16.7875 8.02993 17.1525 7.69982C17.3358 7.53513 17.5568 7.35832 17.807 7.21715C18.0423 7.08311 18.4131 6.91699 18.8679 6.91699H22.3914C22.8463 6.91699 23.217 7.08311 23.453 7.21644C23.7025 7.35903 23.9235 7.53513 24.1068 7.69982C24.4725 8.02993 24.8183 8.43631 25.0992 8.79565C25.4545 9.25219 25.7872 9.72593 26.0959 10.2152L26.1131 10.243L26.1202 10.2551C26.3191 10.5767 26.3821 10.9642 26.2953 11.3323C26.2086 11.7004 25.9791 12.0189 25.6575 12.2179C25.3358 12.4168 24.9483 12.4798 24.5803 12.393C24.2122 12.3062 23.8936 12.0768 23.6947 11.7552L23.6926 11.7516L23.6819 11.7338C23.5746 11.5648 23.4641 11.3979 23.3503 11.2333C23.684 12.8945 24.3413 15.1731 24.685 16.3252C24.7137 16.4188 24.7226 16.5173 24.7112 16.6145C24.6999 16.7117 24.6685 16.8054 24.619 16.8899C24.5696 16.9743 24.5032 17.0476 24.4239 17.105C24.3447 17.1624 24.2544 17.2028 24.1588 17.2236C21.6371 17.749 19.8718 17.7355 17.1333 17.2136C17.035 17.1942 16.9419 17.1544 16.8601 17.0966C16.7783 17.0389 16.7096 16.9645 16.6584 16.8784C16.6073 16.7923 16.5749 16.6963 16.5634 16.5968C16.5518 16.4973 16.5614 16.3965 16.5914 16.301C16.9515 15.1431 17.621 12.8888 17.9382 11.1905C17.8145 11.3692 17.6942 11.5504 17.5775 11.7338L17.5668 11.7516L17.5646 11.7544ZM17.4926 18.4328V19.3938C17.4929 19.653 17.5873 19.9032 17.7582 20.098C17.9291 20.2928 18.1649 20.419 18.4218 20.4529C18.6787 20.4869 18.9392 20.4265 19.1549 20.2828C19.3706 20.1391 19.5268 19.922 19.5944 19.6719L19.8761 18.6281C19.079 18.5998 18.2837 18.5346 17.4926 18.4328ZM21.5244 18.6253L21.8075 19.6726C21.8751 19.9228 22.0314 20.14 22.2471 20.2836C22.4629 20.4273 22.7235 20.4877 22.9805 20.4536C23.2374 20.4195 23.4733 20.2933 23.6441 20.0983C23.815 19.9034 23.9092 19.653 23.9093 19.3938V18.4228C23.1177 18.5254 22.322 18.5927 21.5244 18.6245V18.6253Z" fill="url(#paint3_linear_523_5685)"/>
<defs>
<linearGradient id="paint0_linear_523_5685" x1="9.08026" y1="5.88639" x2="2.74139" y2="4.0547" gradientUnits="userSpaceOnUse">
<stop stop-color="#246BFD"/>
<stop offset="1" stop-color="#5089FF"/>
</linearGradient>
<linearGradient id="paint1_linear_523_5685" x1="12.1609" y1="20.4659" x2="-1.80263" y2="16.9947" gradientUnits="userSpaceOnUse">
<stop stop-color="#246BFD"/>
<stop offset="1" stop-color="#5089FF"/>
</linearGradient>
<linearGradient id="paint2_linear_523_5685" x1="23.3393" y1="5.82369" x2="17.0046" y2="3.987" gradientUnits="userSpaceOnUse">
<stop stop-color="#246BFD"/>
<stop offset="1" stop-color="#5089FF"/>
</linearGradient>
<linearGradient id="paint3_linear_523_5685" x1="26.3334" y1="20.4629" x2="12.4589" y2="17.0786" gradientUnits="userSpaceOnUse">
<stop stop-color="#246BFD"/>
<stop offset="1" stop-color="#5089FF"/>
</linearGradient>
</defs>
</svg>
