<svg width="21" height="24" viewBox="0 0 21 24" fill="none" xmlns="http://www.w3.org/2000/svg">
<path d="M2.33333 23.6666C1.69167 23.6666 1.14217 23.4384 0.684833 22.9818C0.228278 22.5245 0 21.975 0 21.3333V4.99998C0 4.35831 0.228278 3.8092 0.684833 3.35265C1.14217 2.89531 1.69167 2.66665 2.33333 2.66665H2.5C3.05228 2.66665 3.5 2.21893 3.5 1.66665V1.33331C3.5 0.781028 3.94772 0.333313 4.5 0.333313H4.83333C5.38562 0.333313 5.83333 0.781028 5.83333 1.33331V1.66665C5.83333 2.21893 6.28105 2.66665 6.83333 2.66665H14.1667C14.719 2.66665 15.1667 2.21893 15.1667 1.66665V1.33331C15.1667 0.781028 15.6144 0.333313 16.1667 0.333313H16.5C17.0523 0.333313 17.5 0.781028 17.5 1.33331V1.66665C17.5 2.21893 17.9477 2.66665 18.5 2.66665H18.6667C19.3083 2.66665 19.8578 2.89531 20.3152 3.35265C20.7717 3.8092 21 4.35831 21 4.99998V21.3333C21 21.975 20.7717 22.5245 20.3152 22.9818C19.8578 23.4384 19.3083 23.6666 18.6667 23.6666H2.33333ZM7 20.4583C7 20.9416 7.39175 21.3333 7.875 21.3333C8.35825 21.3333 8.75 20.9416 8.75 20.4583V18.9125C8.75 18.8108 8.69829 18.6574 8.59488 18.4523C8.56316 18.3894 8.52281 18.3313 8.47715 18.2776L6.2125 15.6166C6.07639 15.4611 5.97917 15.2958 5.92083 15.1208C5.84167 14.8833 6.09347 14.7119 6.33291 14.785C6.38469 14.8008 6.43671 14.8155 6.489 14.8291C6.713 14.8875 6.94167 14.9166 7.175 14.9166C7.56389 14.9166 7.94772 14.8338 8.3265 14.6681C8.70606 14.5033 9.04167 14.2653 9.33333 13.9541C9.48889 13.7986 9.66894 13.6819 9.8735 13.6041C10.0773 13.5264 10.2861 13.4875 10.5 13.4875C10.7333 13.4875 10.9519 13.5264 11.1557 13.6041C11.3602 13.6819 11.5306 13.7986 11.6667 13.9541C11.9583 14.2653 12.2986 14.5033 12.6875 14.6681C13.0764 14.8338 13.4653 14.9166 13.8542 14.9166C14.0875 14.9166 14.3111 14.8875 14.525 14.8291C14.5726 14.8162 14.6203 14.8022 14.6679 14.7873C14.9068 14.7124 15.1583 14.8833 15.0792 15.1208C15.0208 15.2958 14.9236 15.4611 14.7875 15.6166L12.5077 18.2955C12.4721 18.3373 12.4396 18.3818 12.4126 18.4296C12.3724 18.5011 12.3376 18.5698 12.3083 18.636C12.2694 18.7231 12.25 18.8153 12.25 18.9125V20.4583C12.25 20.9416 12.6418 21.3333 13.125 21.3333C13.6082 21.3333 14 20.9416 14 20.4583V19.6032C14 19.3645 14.0854 19.1337 14.2407 18.9524L16.1 16.7833C16.3139 16.5694 16.5037 16.2778 16.6693 15.9083C16.8342 15.5389 16.9167 15.1111 16.9167 14.625C16.9167 14.3722 16.8875 14.1241 16.8292 13.8806C16.807 13.7886 16.7807 13.6973 16.7502 13.6066C16.654 13.3206 16.6449 13.0088 16.7407 12.7227C16.7672 12.6437 16.792 12.563 16.8152 12.4806C16.8828 12.238 16.9167 11.9903 16.9167 11.7375C16.9167 11.3486 16.8533 10.9741 16.7265 10.614C16.6005 10.2546 16.4014 9.91942 16.1292 9.60831L14.2376 7.37992C14.0842 7.19919 14 6.96984 14 6.73279V5.87498C14 5.39173 13.6082 4.99998 13.125 4.99998C12.6418 4.99998 12.25 5.39173 12.25 5.87498V7.42081C12.25 7.51803 12.2648 7.61526 12.2943 7.71248C12.3231 7.8097 12.3764 7.8972 12.4542 7.97498L14.7875 10.7458C14.9042 10.9014 14.9967 11.0616 15.0652 11.2265C15.1328 11.3921 15.1667 11.5625 15.1667 11.7375C15.1667 12.1069 15.0453 12.4328 14.8027 12.7151C14.5592 12.9967 14.2431 13.1375 13.8542 13.1375C13.6986 13.1375 13.5384 13.1083 13.3735 13.05C13.2078 12.9916 13.0569 12.8944 12.9208 12.7583C12.5903 12.4278 12.2162 12.175 11.7985 12C11.3801 11.825 10.9472 11.7375 10.5 11.7375C10.0528 11.7375 9.62033 11.825 9.20267 12C8.78422 12.175 8.40972 12.4278 8.07917 12.7583C7.9625 12.8944 7.82639 12.9916 7.67083 13.05C7.51528 13.1083 7.35 13.1375 7.175 13.1375C6.78611 13.1375 6.46528 12.9967 6.2125 12.7151C5.95972 12.4328 5.83333 12.0972 5.83333 11.7083C5.83333 11.5333 5.8625 11.363 5.92083 11.1973C5.97917 11.0324 6.07639 10.8722 6.2125 10.7166L8.49234 8.03783C8.52794 7.996 8.56038 7.9515 8.58736 7.90365C8.62763 7.83223 8.6624 7.76345 8.69167 7.69731C8.73055 7.6102 8.75 7.51803 8.75 7.42081V5.87498C8.75 5.39173 8.35825 4.99998 7.875 4.99998C7.39175 4.99998 7 5.39173 7 5.87498V6.73006C7 6.96877 6.91461 7.1996 6.75926 7.38085L4.9 9.54998C4.68611 9.76387 4.49672 10.0555 4.33183 10.425C4.16617 10.7944 4.08333 11.2222 4.08333 11.7083C4.08333 11.9805 4.1125 12.238 4.17083 12.4806C4.19039 12.5623 4.21214 12.6422 4.23607 12.7205C4.32426 13.0091 4.31517 13.3203 4.22544 13.6084C4.19738 13.6985 4.17412 13.7892 4.15567 13.8806C4.10744 14.1241 4.08333 14.3722 4.08333 14.625C4.08333 15.1111 4.16617 15.5389 4.33183 15.9083C4.49672 16.2778 4.68611 16.5694 4.9 16.7833L6.75926 18.9524C6.91461 19.1337 7 19.3645 7 19.6032V20.4583Z" fill="url(#paint0_linear_523_5574)"/>
<defs>
<linearGradient id="paint0_linear_523_5574" x1="21" y1="23.6666" x2="-4.36179" y2="17.0486" gradientUnits="userSpaceOnUse">
<stop stop-color="#246BFD"/>
<stop offset="1" stop-color="#5089FF"/>
</linearGradient>
</defs>
</svg>
