<svg width="28" height="28" viewBox="0 0 28 28" fill="none" xmlns="http://www.w3.org/2000/svg">
<path d="M12.2558 27.0667C12.2558 27.0667 14.2853 22.9195 12.9272 20.297C12.2631 19.0147 11.0679 18.258 9.92989 17.5376C8.74061 16.7847 7.61371 16.0713 7.22045 14.8386C7.22045 14.8386 5.87755 15.3875 6.51856 16.9427C7.15956 18.4979 8.41062 19.2602 8.41062 19.2602C2.93248 16.9469 1.5262 14.6827 2.18512 8.80079C0.629997 12.3995 0.537057 14.8996 1.83428 17.5221C3.13151 20.1445 4.73314 21.2728 8.197 23.4074C11.6609 25.542 12.2558 27.0667 12.2558 27.0667Z" fill="url(#paint0_linear_200_2192)"/>
<path d="M15.7447 27.0667C15.7447 27.0667 13.7152 22.9195 15.0734 20.297C15.7375 19.0147 16.9326 18.258 18.0706 17.5376C19.2599 16.7847 20.3868 16.0713 20.7801 14.8386C20.7801 14.8386 22.123 15.3875 21.482 16.9427C20.841 18.4979 19.5899 19.2602 19.5899 19.2602C25.068 16.9469 26.4743 14.6827 25.8154 8.80079C27.3705 12.3995 27.4635 14.8996 26.1662 17.5221C24.869 20.1445 23.2674 21.2728 19.8035 23.4074C16.3397 25.542 15.7447 27.0667 15.7447 27.0667Z" fill="url(#paint1_linear_200_2192)"/>
<path fill-rule="evenodd" clip-rule="evenodd" d="M17.1671 0.933481C17.687 0.933481 18.2061 1.00676 18.6996 1.17225C21.7409 2.16024 22.8367 5.49472 21.9213 8.4093C21.4022 9.8987 20.5535 11.258 19.442 12.3687C17.851 13.9083 16.105 15.275 14.2256 16.4524L14.0196 16.5767L13.8054 16.4442C11.9193 15.275 10.1635 13.9083 8.55759 12.3605C7.45349 11.2498 6.60399 9.8987 6.07666 8.4093C5.14559 5.49472 6.24145 2.16024 9.31563 1.15496C9.55457 1.07262 9.80094 1.01499 10.0481 0.982881L10.2871 0.93335C10.5227 0.93335 10.5939 0.933393 10.6549 0.933429C10.7005 0.933457 10.7404 0.933481 10.8391 0.933481H10.9298C11.4488 0.949124 11.9515 1.03969 12.4384 1.20518H12.487C12.52 1.22082 12.5447 1.23811 12.5612 1.25376C12.7433 1.31221 12.9155 1.37808 13.0803 1.46864L13.3934 1.60861C13.469 1.64893 13.554 1.71054 13.6273 1.76378C13.6738 1.79752 13.7157 1.8279 13.7477 1.84738C13.7611 1.8553 13.7748 1.86327 13.7886 1.87131C13.8592 1.91252 13.9328 1.95545 13.9949 2.00298C14.9103 1.30398 16.0218 0.925248 17.1671 0.933481ZM14.461 5.24291C14.3373 5.11939 14.1697 5.04999 13.9949 5.04999C13.82 5.04999 13.6524 5.11939 13.5288 5.24291C13.4051 5.36643 13.3357 5.53397 13.3357 5.70865V7.68464H11.3582C11.1834 7.68464 11.0157 7.75404 10.8921 7.87756C10.7685 8.00108 10.699 8.16862 10.699 8.34331C10.699 8.51799 10.7685 8.68553 10.8921 8.80905C11.0157 8.93257 11.1834 9.00197 11.3582 9.00197H13.3357V10.978C13.3357 11.1526 13.4051 11.3202 13.5288 11.4437C13.6524 11.5672 13.82 11.6366 13.9949 11.6366C14.1697 11.6366 14.3373 11.5672 14.461 11.4437C14.5846 11.3202 14.654 11.1526 14.654 10.978V9.00197H16.6315C16.8063 9.00197 16.974 8.93257 17.0976 8.80905C17.2212 8.68553 17.2907 8.51799 17.2907 8.34331C17.2907 8.16862 17.2212 8.00108 17.0976 7.87756C16.974 7.75404 16.8063 7.68464 16.6315 7.68464H14.654V5.70865C14.654 5.53397 14.5846 5.36643 14.461 5.24291Z" fill="url(#paint2_linear_200_2192)"/>
<defs>
<linearGradient id="paint0_linear_200_2192" x1="27.0669" y1="27.0667" x2="-4.02939" y2="18.0506" gradientUnits="userSpaceOnUse">
<stop stop-color="#246BFD"/>
<stop offset="1" stop-color="#5089FF"/>
</linearGradient>
<linearGradient id="paint1_linear_200_2192" x1="27.0669" y1="27.0667" x2="-4.02939" y2="18.0506" gradientUnits="userSpaceOnUse">
<stop stop-color="#246BFD"/>
<stop offset="1" stop-color="#5089FF"/>
</linearGradient>
<linearGradient id="paint2_linear_200_2192" x1="27.0669" y1="27.0667" x2="-4.02939" y2="18.0506" gradientUnits="userSpaceOnUse">
<stop stop-color="#246BFD"/>
<stop offset="1" stop-color="#5089FF"/>
</linearGradient>
</defs>
</svg>
